<svg xmlns="http://www.w3.org/2000/svg" width="228.624" height="246" viewBox="0 0 228.624 246">
  <g id="undraw_file_searching_re_3evy" transform="translate(-0.004 0)">
    <path id="Path_9797" data-name="Path 9797" d="M456.026,278.609,357.2,304.058a13.068,13.068,0,0,1-15.9-9.386L311.416,178.609a13.068,13.068,0,0,1,9.385-15.9l91.942-23.676,23.533,10.535,29.135,113.141a13.068,13.068,0,0,1-9.386,15.9Z" transform="translate(-310.999 -139.037)" fill="#f2f2f2"/>
    <path id="Path_9798" data-name="Path 9798" d="M327.481,172.414a9.306,9.306,0,0,0-6.684,11.32L350.685,299.8A9.306,9.306,0,0,0,362,306.481l98.827-25.449a9.306,9.306,0,0,0,6.684-11.32L438.831,158.324l-20.681-9.258Z" transform="translate(-316.742 -145.099)" fill="#fff"/>
    <path id="Path_9799" data-name="Path 9799" d="M591.156,150.645l-15.295,3.939a4.347,4.347,0,0,1-5.294-3.126l-2.909-11.3a.272.272,0,0,1,.373-.316L591.2,150.134a.272.272,0,0,1-.043.512Z" transform="translate(-466.13 -139.511)" fill="#f2f2f2"/>
    <path id="Path_9800" data-name="Path 9800" d="M533.825,411.226l-44.994,11.587a2.174,2.174,0,0,1-1.084-4.21l44.994-11.586a2.174,2.174,0,0,1,1.084,4.21Z" transform="translate(-416.846 -300.977)" fill="#ccc"/>
    <path id="Path_9801" data-name="Path 9801" d="M547.134,423.534l-53.678,13.823a2.174,2.174,0,0,1-1.084-4.21l53.677-13.823a2.174,2.174,0,1,1,1.084,4.21Z" transform="translate(-419.642 -308.416)" fill="#ccc"/>
    <circle id="Ellipse_44" data-name="Ellipse 44" cx="7.683" cy="7.683" r="7.683" transform="translate(45.938 120.426)" fill="#e6e6e6"/>
    <path id="Path_9802" data-name="Path 9802" d="M471.347,272.364,411.59,287.746a6.732,6.732,0,0,1-8.188-4.836l-12.523-48.648a6.732,6.732,0,0,1,4.836-8.188l59.757-15.382a6.732,6.732,0,0,1,8.188,4.836l12.523,48.648A6.732,6.732,0,0,1,471.347,272.364Z" transform="translate(-359.152 -182.221)" fill="#fff"/>
    <path id="Path_9803" data-name="Path 9803" d="M471.347,272.364,411.59,287.746a6.732,6.732,0,0,1-8.188-4.836l-12.523-48.648a6.732,6.732,0,0,1,4.836-8.188l59.757-15.382a6.732,6.732,0,0,1,8.188,4.836l12.523,48.648A6.732,6.732,0,0,1,471.347,272.364ZM395.912,226.84a5.94,5.94,0,0,0-4.267,7.225l12.523,48.649a5.94,5.94,0,0,0,7.225,4.267L471.15,271.6a5.94,5.94,0,0,0,4.267-7.225l-12.523-48.648a5.94,5.94,0,0,0-7.225-4.267Z" transform="translate(-359.152 -182.221)" fill="#e6e6e6"/>
    <path id="Path_411" data-name="Path 411" d="M498.678,249.1l-30.159,7.763a1.08,1.08,0,0,1-1.309-.68,1.041,1.041,0,0,1,.733-1.321l30.7-7.9c1.24.628.914,1.914.034,2.14Z" transform="translate(-405.391 -204.272)" fill="#f2f2f2"/>
    <path id="Path_412" data-name="Path 412" d="M502.122,262.475l-30.159,7.763a1.08,1.08,0,0,1-1.309-.68,1.04,1.04,0,0,1,.733-1.321l30.7-7.9c1.24.628.914,1.914.034,2.14Z" transform="translate(-407.472 -212.356)" fill="#f2f2f2"/>
    <path id="Path_413" data-name="Path 413" d="M438.942,277.11l-9.2,2.369a1.172,1.172,0,0,1-1.425-.842l-2.8-10.862a1.172,1.172,0,0,1,.842-1.425l9.2-2.369a1.172,1.172,0,0,1,1.425.842l2.8,10.862a1.172,1.172,0,0,1-.842,1.425Z" transform="translate(-380.195 -214.538)" fill="#e6e6e6"/>
    <path id="Path_414" data-name="Path 414" d="M484.7,289.915l-46.028,11.848a1.08,1.08,0,0,1-1.309-.68,1.041,1.041,0,0,1,.733-1.321l46.569-11.987c1.24.628.914,1.914.034,2.14Z" transform="translate(-387.348 -228.942)" fill="#f2f2f2"/>
    <path id="Path_415" data-name="Path 415" d="M488.142,303.293l-46.028,11.848a1.08,1.08,0,0,1-1.309-.68,1.041,1.041,0,0,1,.733-1.321l46.569-11.988c1.24.628.914,1.914.034,2.14Z" transform="translate(-389.43 -237.029)" fill="#f2f2f2"/>
    <path id="Path_416" data-name="Path 416" d="M491.584,316.662,445.556,328.51a1.08,1.08,0,0,1-1.309-.68,1.04,1.04,0,0,1,.733-1.321l46.569-11.988c1.24.628.914,1.914.034,2.14Z" transform="translate(-391.51 -245.11)" fill="#f2f2f2"/>
    <path id="Path_417" data-name="Path 417" d="M495.027,330.039,449,341.887a1.08,1.08,0,0,1-1.309-.68,1.041,1.041,0,0,1,.733-1.321L494.993,327.9c1.24.628.914,1.914.034,2.14Z" transform="translate(-393.591 -253.196)" fill="#f2f2f2"/>
    <path id="Path_418" data-name="Path 418" d="M498.469,343.409l-46.027,11.848a1.08,1.08,0,0,1-1.309-.68,1.041,1.041,0,0,1,.733-1.321l46.569-11.988c1.24.628.914,1.914.034,2.14Z" transform="translate(-395.672 -261.277)" fill="#f2f2f2"/>
    <path id="Path_395" data-name="Path 395" d="M443.257,459.8a.8.8,0,0,1-.5-.035l-.01,0-2.093-.887a.8.8,0,0,1,.628-1.477l1.356.577,1.777-4.181a.8.8,0,0,1,1.052-.424h0l-.011.027.011-.027a.8.8,0,0,1,.424,1.052l-2.091,4.916a.8.8,0,0,1-.54.462Z" transform="translate(-389.07 -328.996)" fill="#fff"/>
    <path id="Path_9804" data-name="Path 9804" d="M597.579,380.671H495.528a13.068,13.068,0,0,1-13.053-13.053V247.768a13.068,13.068,0,0,1,13.053-13.053h94.941l20.162,16.071V367.618a13.068,13.068,0,0,1-13.053,13.053Z" transform="translate(-414.646 -196.87)" fill="#e6e6e6"/>
    <path id="Path_9805" data-name="Path 9805" d="M501.269,244.215a9.306,9.306,0,0,0-9.3,9.3V373.36a9.306,9.306,0,0,0,9.3,9.3H603.32a9.306,9.306,0,0,0,9.3-9.3V258.338L594.9,244.214Z" transform="translate(-420.388 -202.612)" fill="#fff"/>
    <path id="Path_9806" data-name="Path 9806" d="M648.971,325.676H602.508a2.174,2.174,0,0,1,0-4.347h46.462a2.174,2.174,0,0,1,0,4.347Z" transform="translate(-485.887 -249.224)" fill="#6c63ff"/>
    <path id="Path_9807" data-name="Path 9807" d="M657.937,344.223H602.508a2.174,2.174,0,0,1,0-4.347h55.429a2.174,2.174,0,1,1,0,4.347Z" transform="translate(-485.887 -260.435)" fill="#6c63ff"/>
    <path id="Path_9808" data-name="Path 9808" d="M648.973,404.443H602.512a2.174,2.174,0,0,0,0,4.347h46.461a2.174,2.174,0,0,0,0-4.347Z" transform="translate(-485.889 -299.463)" fill="#ccc"/>
    <path id="Path_9809" data-name="Path 9809" d="M657.94,422.993H602.512a2.174,2.174,0,0,0,0,4.347H657.94a2.174,2.174,0,1,0,0-4.347Z" transform="translate(-485.889 -310.676)" fill="#ccc"/>
    <path id="Path_9810" data-name="Path 9810" d="M648.971,491.911H602.508a2.174,2.174,0,0,1,0-4.347h46.462a2.174,2.174,0,0,1,0,4.347Z" transform="translate(-485.887 -349.705)" fill="#ccc"/>
    <path id="Path_9811" data-name="Path 9811" d="M657.937,510.458H602.508a2.174,2.174,0,0,1,0-4.347h55.429a2.174,2.174,0,1,1,0,4.347Z" transform="translate(-485.887 -360.916)" fill="#ccc"/>
    <circle id="Ellipse_44-2" data-name="Ellipse 44" cx="7.683" cy="7.683" r="7.683" transform="translate(89.591 70.263)" fill="#6c63ff"/>
    <path id="Path_395-2" data-name="Path 395" d="M551.005,334.577a.8.8,0,0,1-.479-.159l-.009-.006-1.806-1.381a.8.8,0,1,1,.976-1.274l1.17.9,2.764-3.605a.8.8,0,0,1,1.124-.149h0l-.017.024.018-.024a.8.8,0,0,1,.148,1.125l-3.25,4.239a.8.8,0,0,1-.638.313Z" transform="translate(-454.493 -253.7)" fill="#fff"/>
    <path id="Path_9812" data-name="Path 9812" d="M554.854,407.47a7.682,7.682,0,0,1-7.681,7.685,1.653,1.653,0,0,1-.2-.008,7.682,7.682,0,1,1,7.879-7.678Z" transform="translate(-449.109 -296.648)" fill="#ccc"/>
    <circle id="Ellipse_44-3" data-name="Ellipse 44" cx="7.683" cy="7.683" r="7.683" transform="translate(89.591 136.017)" fill="#ccc"/>
    <path id="Path_9813" data-name="Path 9813" d="M774.7,251.766H758.91a4.347,4.347,0,0,1-4.347-4.347V235.754a.272.272,0,0,1,.44-.213l19.869,15.741a.272.272,0,0,1-.169.485Z" transform="translate(-579.111 -197.334)" fill="#ccc"/>
    <path id="Path_9814" data-name="Path 9814" d="M564.468,407.638a7.682,7.682,0,0,1-7.681,7.685,1.634,1.634,0,0,1-.2-.008,16.633,16.633,0,0,1,1.491-15.252A7.687,7.687,0,0,1,564.468,407.638Z" transform="translate(-458.722 -296.816)" fill="#6c63ff"/>
    <path id="Path_9815" data-name="Path 9815" d="M600.334,406.618a2.179,2.179,0,0,1,2.176-2.176h11.578a16.437,16.437,0,0,1,1.428,4.347H602.51a2.176,2.176,0,0,1-2.176-2.171Z" transform="translate(-485.886 -299.463)" fill="#6c63ff"/>
    <path id="Path_9816" data-name="Path 9816" d="M615.787,422.993a16.582,16.582,0,0,1-.578,4.347h-12.7a2.174,2.174,0,1,1,0-4.347Z" transform="translate(-485.889 -310.676)" fill="#6c63ff"/>
    <path id="Path_9817" data-name="Path 9817" d="M662.778,459.444a2.373,2.373,0,0,1-3.262.79l-27.69-16.89a2.373,2.373,0,1,1,2.472-4.052l27.69,16.89A2.373,2.373,0,0,1,662.778,459.444Z" transform="translate(-504.234 -320.317)" fill="#3f3d56"/>
    <path id="Path_9818" data-name="Path 9818" d="M588.023,403.943a18.986,18.986,0,1,1-6.322-26.1,18.986,18.986,0,0,1,6.322,26.1Zm-28.365-17.3A14.24,14.24,0,1,0,579.23,381.9a14.24,14.24,0,0,0-19.572,4.742Z" transform="translate(-457.17 -281.707)" fill="#3f3d56"/>
    <circle id="Ellipse_841" data-name="Ellipse 841" cx="9.715" cy="9.715" r="9.715" transform="translate(181.97 95.964)" fill="#a0616a"/>
    <path id="Path_9819" data-name="Path 9819" d="M793.7,486.762a4.352,4.352,0,0,1,3.292-5.6,4.144,4.144,0,0,1,.577-.071L807.8,464.669l-9.348-8.887a3.731,3.731,0,1,1,5.19-5.361l12.906,12.726.026.032a3.38,3.38,0,0,1-.235,4.029L802,484.167a4.048,4.048,0,0,1,.107.414,4.352,4.352,0,0,1-3.906,5.188q-.185.016-.369.016A4.366,4.366,0,0,1,793.7,486.762Z" transform="translate(-602.64 -326.62)" fill="#a0616a"/>
    <path id="Path_9820" data-name="Path 9820" d="M433.215,580.417h-4.849l-2.307-18.7h7.157Z" transform="translate(-257.531 -339.529)" fill="#a0616a"/>
    <path id="Path_9821" data-name="Path 9821" d="M734.383,750.319H718.746v-.2a6.086,6.086,0,0,1,6.086-6.086h9.55Z" transform="translate(-557.461 -504.731)" fill="#2f2e41"/>
    <path id="Path_9822" data-name="Path 9822" d="M541.987,567.49l-4.167,2.481-11.552-14.891,6.149-3.662Z" transform="translate(-318.103 -333.308)" fill="#a0616a"/>
    <path id="Path_9823" data-name="Path 9823" d="M863.776,731.448l-13.435,8-.1-.17a6.086,6.086,0,0,1,2.116-8.343h0l8.206-4.886Z" transform="translate(-636.424 -493.859)" fill="#2f2e41"/>
    <path id="Path_9824" data-name="Path 9824" d="M731.735,592.131c-3.249-38.252-5.181-73.787,6.694-88.283l.092-.112,19.985,7.994.033.072c.067.147,6.714,14.767,5.164,24.6l4.93,22.676,16.073,26.913a1.78,1.78,0,0,1-.811,2.542l-6.985,3.073a1.788,1.788,0,0,1-2.234-.7L757.19,562.4l-9.876-21.868a.593.593,0,0,0-1.131.182l-5.474,51.459a1.777,1.777,0,0,1-1.77,1.592h-5.43A1.792,1.792,0,0,1,731.735,592.131Z" transform="translate(-563.818 -359.481)" fill="#2f2e41"/>
    <path id="Path_9825" data-name="Path 9825" d="M752.046,465.069l-.1-.046-.015-.1c-.747-5.225.137-11.031,2.626-17.256a13.7,13.7,0,0,1,15.9-8.2h0a13.684,13.684,0,0,1,8.726,6.71,13.536,13.536,0,0,1,.939,10.848c-3.138,9.177-7.209,17.763-7.25,17.849l-.085.179Z" transform="translate(-577.368 -320.399)" fill="#6c63ff"/>
    <path id="Path_9826" data-name="Path 9826" d="M694.954,458.687a4.352,4.352,0,0,1,6.4,1.123,4.141,4.141,0,0,1,.269.516l18.968,3.834,5.05-11.868a3.731,3.731,0,1,1,6.839,2.984l-7.4,16.546-.021.035a3.38,3.38,0,0,1-3.856,1.19l-20.906-7.492a4.062,4.062,0,0,1-.35.245,4.352,4.352,0,0,1-6.227-1.842q-.08-.168-.144-.34A4.365,4.365,0,0,1,694.954,458.687Z" transform="translate(-542.081 -327.031)" fill="#a0616a"/>
    <path id="Path_9827" data-name="Path 9827" d="M812.7,395.71a7.921,7.921,0,0,0-4.1-3.79c-2.328-.791-4.848.051-7.241.614a13.416,13.416,0,0,1-5.629.333,6.321,6.321,0,0,1-4.5-3.142c-1.244-2.493-.2-5.467-.272-8.252a10.021,10.021,0,0,0-12.627-9.418c-2.292-.661-4.366-.723-5.784,1.039a6.725,6.725,0,0,0-6.724,6.724h6.43a6.389,6.389,0,0,0,.971,4.719c1.135,1.668,3.109,2.874,3.489,4.855.368,1.92-.937,3.741-2.306,5.137s-2.957,2.778-3.384,4.686a5.811,5.811,0,0,0,.832,4.179,13.611,13.611,0,0,0,2.922,3.218,42.878,42.878,0,0,0,17.814,9.113c4.629,1.115,9.693,1.4,13.991-.647A13.894,13.894,0,0,0,812.7,395.71Z" transform="translate(-585.917 -279.628)" fill="#2f2e41"/>
    <path id="Path_9828" data-name="Path 9828" d="M772.55,759.754H697.4a.4.4,0,0,1,0-.791H772.55a.4.4,0,0,1,0,.791Z" transform="translate(-544.317 -513.754)" fill="#ccc"/>
  </g>
</svg>
